DataType=double
version=3
OpenSimVersion=4.5-2024-01-10-34fd6af
endheader
time	ground_force_2_vx	ground_force_2_vy	ground_force_2_vz	ground_force_2_px	ground_force_2_py	ground_force_2_pz	ground_moment_2_mx	ground_moment_2_my	ground_moment_2_mz	ground_force_1_vx	ground_force_1_vy	ground_force_1_vz	ground_force_1_px	ground_force_1_py	ground_force_1_pz	ground_moment_1_mx	ground_moment_1_my	ground_moment_1_mz
38.3	4.592926033105089	34.09996539462088	5.470713707068896	1.24146995834587	0.01929718473203197	0.5558326401093056	0	-0.03854695250095475	0	73.26816550166193	747.0169861458369	81.20124927448218	0.9116404704736936	0.01929718473203197	0.3343591692132202	0	3.754694546752718	0
38.31	1.227197379398119	85.89328008594623	7.469650867358496	1.239093109640933	0.01929718473203197	0.5578686518798829	0	0.07717846462666866	0	75.99685932016628	736.6749819518931	81.09222972554866	0.908045093558799	0.01929718473203197	0.3327615811078899	0	3.819475408871829	0
38.32	-3.058202436263304	139.708066753046	8.749193704435662	1.236877976136424	0.01929718473203197	0.5598385997457888	0	0.223658562034473	0	78.39501053183413	723.467643774471	80.59695320165474	0.9045046790832862	0.01929718473203197	0.331237728516401	0	3.858098463906053	0
38.33	-8.623481910036652	195.6120464468877	8.925788134673184	1.234933965311321	0.01929718473203197	0.561675800026083	0	0.4155790402883486	0	80.23342956807879	706.0547248478453	79.50654107400155	0.9010816984395704	0.01929718473203197	0.3298589668320143	0	3.858406027829556	0
38.34	-15.64347418774026	253.2063814225452	7.668600767032189	1.233324401949997	0.01929718473203197	0.5633507555227044	0	0.6610608871798558	0	81.27177406528133	683.1728650861007	77.63887795231682	0.8978175973071912	0.01929718473203197	0.3286711611990297	0	3.809996780637293	0
38.35	-24.06084028271722	311.5562356604838	4.753511446166513	1.232030927286752	0.01929718473203197	0.5648645127663863	0	0.9586024981485692	0	81.25101223309075	653.8035905039043	74.86189187631399	0.8947208462193981	0.01929718473203197	0.3276972295257711	0	3.701921565254718	0
38.36	-33.58363376934314	369.2963170822952	0.1167545890012534	1.230936006111718	0.01929718473203197	0.566237417427529	0	1.296455289634581	0	79.92712257807598	617.4061189528927	71.1388467712364	0.8917464875331325	0.01929718473203197	0.3269471683704901	0	3.524766988200973	0
38.37	-43.72379683899162	424.8676705461122	-6.111299037126702	1.229843702031766	0.01929718473203197	0.5674983844010982	0	1.65591828950212	0	77.128413883517	574.0718949821497	66.53790746753542	0.8887930923799141	0.01929718473203197	0.3264249204509002	0	3.274497277759488	0
38.38	-53.86907244312015	476.8092753478779	-13.61231223131762	1.228530798452607	0.01929718473203197	0.5686762702917112	0	2.017392776551981	0	72.78161703125315	524.5019138204327	61.18790787005562	0.8857296059726252	0.01929718473203197	0.326128572401661	0	2.954205893894129	0
38.39	-63.37386525328018	524.0023005263903	-21.92870609987742	1.226798768940581	0.01929718473203197	0.5697944934583313	0	2.365490879193652	0	66.91735668074979	469.8688181804723	55.24201066413874	0.8824342780338457	0.01929718473203197	0.3260511375424437	0	2.574090609814307	0
38.4	-71.65320134999612	565.7975834384886	-30.54291254067841	1.224507074142117	0.01929718473203197	0.5708690733224299	0	2.690877190994567	0	59.69127983648131	411.6764818662484	48.88707551057232	0.8788238409885297	0.01929718473203197	0.3261873198127528	0	2.151440190840369	0
38.41	-78.26336017450372	602.0204841494467	-38.96540400234755	1.221587268329262	0.01929718473203197	0.5719094313597124	0	2.989417027573272	0	51.39439638780215	351.6680972067711	42.35773224357409	0.8748675149071667	0.01929718473203197	0.3265424844757515	0	1.710256067152073	0
38.42	-82.95119381501432	632.8792108561975	-46.80326682669218	1.218041481892278	0.01929718473203197	0.5729203603445812	0	3.259998114453999	0	42.41518059429337	291.7614918886393	35.90659691376728	0.8705902222596904	0.01929718473203197	0.3271386631001412	0	1.278705751446217	0
38.43	-85.66231174131816	658.8160275787014	-53.79084706513034	1.213928754400071	0.01929718473203197	0.5739035409292486	0	3.502121513617599	0	33.1863755324452	233.9553898799878	29.74486122565163	0.8660717964760767	0.01929718473203197	0.3280159456376927	0	0.8842573506238438	0
38.44	-86.51417831820187	680.3526869061743	-59.78573546634303	1.209345361774939	0.01929718473203197	0.5748582201543424	0	3.714275555543345	0	24.17426982747294	180.1712688290205	24.00496910783265	0.8614486871896354	0.01929718473203197	0.3292289303989008	0	0.5485655311555826	0
38.45	-85.74963349251598	697.9760549271073	-64.74637313497142	1.204405023321565	0.01929718473203197	0.5757815487945404	0	3.893697861908557	0	15.89276927679647	132.065888771078	18.7524974236186	0.8569176725040497	0.01929718473203197	0.3308376284260189	0	0.2840929245801396	0
38.46	-83.6858259064458	712.0862791982443	-68.7056955303257	1.19922194878224	0.01929718473203197	0.5766690259453379	0	4.037372071281554	0	8.857979113227964	90.87363523729078	14.03124271982148	0.8527376268029063	0.01929718473203197	0.3328927242628248	0	0.09309207278476417	0
38.47	-80.6689288958239	723.0028902657432	-71.74719018248774	1.193897660405289	0.01929718473203197	0.5775151010324319	0	4.14350668331645	0	3.449611270071149	57.29069460466235	9.902334812125819	0.8492332521465127	0.01929718473203197	0.3354147877906031	0	-0.03111823120621349	0
38.48	-77.03995608188664	731.0060958073552	-73.98351747242657	1.188511910516181	0.01929718473203197	0.5783137751279366	0	4.212613014174035	0	-0.232389576836896	31.40988167515263	6.443579445853718	0.8468139484772558	0.01929718473203197	0.3383497270407506	0	-0.1009811496870758	0
38.49	-73.11212860454235	736.3864011492567	-75.53633953546478	1.183117794678167	0.01929718473203197	0.5790591101799646	0	4.247666621344581	0	-2.381257018243046	12.74218171450906	3.709692390202015	0.8459795386576072	0.01929718473203197	0.3415111055469917	0	-0.1308114206089499	0
38.5	-69.15671432356397	739.4825788196842	-76.51819403660667	1.177740874380498	0.01929718473203197	0.579745701360576	0	4.253415353643332	0	-3.352628179431244	0.3383055340153192	1.693167998144382	0.8472281932477248	0.01929718473203197	0.3446045195734815	0	-0.1338329658079775	0
38.51	-65.39334491054747	740.6980462844913	-77.01983495784083	1.172381813861286	0.01929718473203197	0.5803692076951277	0	4.235299935502828	0	-3.516921800429547	-7.015900669622567	0.3208477709829296	0.8508958272708472	0.01929718473203197	0.3473522861953554	0	-0.1208398201216552	0
38.52	-61.98245775611891	740.4940139249269	-77.10660831096382	1.167021715896701	0.01929718473203197	0.5809269539737382	0	4.198519317604194	0	-3.186692542612471	-10.58985405544024	-0.5208034506901171	0.8570856756756349	0.01929718473203197	0.3495836417922649	0	-0.09994565036911207	0
38.53	-59.02028930162128	739.3638847617767	-76.82456512892931	1.161629015274541	0.01929718473203197	0.5814185035329843	0	4.147567824159124	0	-2.601183410241276	-11.54894469875671	-0.9575804692976178	0.8657198373238868	0.01929718473203197	0.3512310113308731	0	-0.07678611592388074	0
38.54	-56.53859395975201	737.7970568109986	-76.21287160697939	1.15616660411171	0.01929718473203197	0.5818460348283196	0	4.08624519351969	0	-1.930000943044829	-10.86741907648809	-1.108449139018298	0.8766163758651302	0.01929718473203197	0.3522953162250312	0	-0.05491129657833005	0
38.55	-54.51072772297547	736.240728648251	-75.31639787861624	1.150597994471255	0.01929718473203197	0.5822143630577603	0	4.017883334374603	0	-1.282967755081005	-9.298572900274735	-1.075102777007714	0.8895459015178877	0.01929718473203197	0.3528178256531687	0	-0.0362491064636461	0
38.56	-52.86385570363572	735.0664027287506	-74.19270629300215	1.144891731544263	0.01929718473203197	0.582530521049709	0	3.945480262761824	0	-0.7225102714224416	-7.381900092332103	-0.9377560039689925	0.9042699311266508	0.01929718473203197	0.3528589457094769	0	-0.02155897482920777	0
38.57	-51.49530527523426	734.545580920699	-72.91063607687381	1.139023776534199	0.01929718473203197	0.5828029284216558	0	3.871575252770334	0	-0.2761787127008333	-5.471127523271377	-0.7550672205095665	0.9205643049038128	0.01929718473203197	0.3524834634380281	0	-0.01082939083372247	0
